{"glyphs":{"0":{"ha":535,"x_min":0,"x_max":461,"o":"m 290 174 l 172 174 l 172 800 l 290 800 l 290 174 m 461 865 l 355 972 l 107 972 l 0 865 l 0 109 l 107 2 l 355 2 l 461 109 l 461 865 z "},"1":{"ha":360,"x_min":2,"x_max":283,"o":"m 229 174 l 229 972 l 2 972 l 2 800 l 57 800 l 57 174 l 2 174 l 2 2 l 283 2 l 283 174 l 229 174 z "},"2":{"ha":528,"x_min":0,"x_max":460,"o":"m 353 401 l 460 508 l 460 865 l 353 972 l 208 972 l 172 936 l 172 972 l 0 972 l 0 699 l 172 699 l 172 800 l 288 800 l 288 573 l 107 573 l 0 466 l 0 2 l 460 2 l 460 274 l 288 274 l 288 174 l 172 174 l 172 401 l 353 401 z "},"3":{"ha":530,"x_min":1,"x_max":462,"o":"m 462 531 l 462 863 l 355 969 l 209 969 l 173 933 l 173 969 l 2 969 l 2 697 l 173 697 l 173 798 l 290 798 l 290 572 l 173 572 l 173 399 l 290 399 l 290 173 l 173 173 l 173 273 l 1 273 l 1 109 l 108 2 l 355 2 l 462 109 l 462 439 l 416 485 l 462 531 z "},"4":{"ha":555,"x_min":1,"x_max":486,"o":"m 191 430 l 260 586 l 260 430 l 191 430 m 431 174 l 431 258 l 484 258 l 484 430 l 431 430 l 431 972 l 244 972 l 1 430 l 1 258 l 260 258 l 260 174 l 205 174 l 205 2 l 486 2 l 486 174 l 431 174 z "},"5":{"ha":530,"x_min":1,"x_max":461,"o":"m 354 572 l 174 572 l 174 800 l 289 800 l 289 699 l 460 699 l 460 972 l 289 972 l 289 936 l 253 972 l 1 972 l 1 507 l 109 400 l 289 400 l 289 174 l 174 174 l 174 275 l 1 275 l 1 109 l 109 2 l 354 2 l 461 109 l 461 465 l 354 572 z "},"6":{"ha":533,"x_min":0,"x_max":461,"o":"m 290 174 l 172 174 l 172 401 l 290 401 l 290 174 m 461 699 l 461 972 l 290 972 l 290 936 l 254 972 l 107 972 l 0 865 l 0 109 l 107 2 l 355 2 l 461 109 l 461 466 l 355 573 l 172 573 l 172 800 l 290 800 l 290 699 l 461 699 z "},"7":{"ha":525,"x_min":1,"x_max":460,"o":"m 460 972 l 209 972 l 173 936 l 173 972 l 1 972 l 1 699 l 173 699 l 173 800 l 285 800 l 144 174 l 92 174 l 92 2 l 372 2 l 372 174 l 320 174 l 460 800 l 460 972 z "},"8":{"ha":528,"x_min":-2,"x_max":459,"o":"m 170 400 l 288 400 l 288 174 l 170 174 l 170 400 m 170 800 l 288 800 l 288 573 l 170 573 l 170 800 m 459 532 l 459 865 l 353 972 l 104 972 l -2 865 l -2 532 l 43 487 l -2 441 l -2 109 l 104 2 l 353 2 l 459 109 l 459 441 l 414 487 l 459 532 z "},"9":{"ha":533,"x_min":2,"x_max":463,"o":"m 174 800 l 292 800 l 292 572 l 174 572 l 174 800 m 357 972 l 109 972 l 2 865 l 2 507 l 109 400 l 292 400 l 292 174 l 174 174 l 174 275 l 2 275 l 2 109 l 109 2 l 357 2 l 463 109 l 463 865 l 357 972 z "},"\u0000":{"ha":0,"x_min":0,"x_max":0,"o":""}," ":{"ha":345,"x_min":0,"x_max":0,"o":""},"!":{"ha":284,"x_min":0,"x_max":207,"o":"m 0 229 l 207 229 l 207 26 l 0 26 l 0 229 m 207 293 l 0 293 l 0 854 l 207 854 l 207 293 z "},"\"":{"ha":456,"x_min":0,"x_max":0,"o":""},"#":{"ha":906,"x_min":0,"x_max":0,"o":""},"$":{"ha":551,"x_min":1,"x_max":479,"o":"m 334 800 l 479 800 l 479 557 l 290 557 l 290 611 l 190 611 l 190 534 l 399 534 l 479 454 l 479 162 l 399 80 l 334 80 l 334 28 l 145 28 l 145 80 l 81 80 l 1 162 l 1 323 l 190 323 l 190 271 l 290 271 l 290 346 l 81 346 l 1 427 l 1 718 l 81 800 l 145 800 l 145 853 l 334 853 l 334 800 z "},"%":{"ha":838,"x_min":1,"x_max":765,"o":"m 624 216 l 593 216 l 593 168 l 624 168 l 624 216 m 765 293 l 765 90 l 701 26 l 514 26 l 451 90 l 451 293 l 514 357 l 701 357 l 765 293 m 174 712 l 142 712 l 142 665 l 174 665 l 174 712 m 654 854 l 325 26 l 112 26 l 441 854 l 654 854 m 252 523 l 64 523 l 1 587 l 1 791 l 64 854 l 252 854 l 315 791 l 315 587 l 252 523 z "},"&":{"ha":596,"x_min":0,"x_max":526,"o":"m 290 328 l 187 328 l 187 287 l 290 287 l 290 328 m 526 517 l 526 328 l 479 328 l 479 178 l 398 98 l 81 98 l 0 178 l 0 407 l 15 422 l 0 439 l 0 702 l 81 783 l 252 783 l 290 746 l 290 783 l 479 783 l 479 548 l 290 548 l 290 593 l 187 593 l 187 517 l 526 517 z "},"'":{"ha":235,"x_min":0,"x_max":0,"o":""},"(":{"ha":315,"x_min":-3,"x_max":251,"o":"m -3 1164 l 251 1164 l 251 964 l 197 964 l 197 -83 l 251 -83 l 251 -283 l -3 -283 l -3 1164 z "},")":{"ha":322,"x_min":-2,"x_max":252,"o":"m -2 1164 l 252 1164 l 252 -283 l -2 -283 l -2 -83 l 52 -83 l 52 964 l -2 964 l -2 1164 z "},"*":{"ha":694,"x_min":0,"x_max":0,"o":""},"+":{"ha":688,"x_min":0,"x_max":0,"o":""},",":{"ha":271,"x_min":-2,"x_max":205,"o":"m -2 213 l 205 213 l 205 26 l -2 -90 l -2 213 z "},"-":{"ha":383,"x_min":3,"x_max":312,"o":"m 312 340 l 3 340 l 3 541 l 312 541 l 312 340 z "},".":{"ha":281,"x_min":0,"x_max":207,"o":"m 0 227 l 207 227 l 207 26 l 0 26 l 0 227 z "},"/":{"ha":386,"x_min":0,"x_max":0,"o":""},":":{"ha":378,"x_min":0,"x_max":0,"o":""},";":{"ha":378,"x_min":0,"x_max":0,"o":""},"<":{"ha":688,"x_min":0,"x_max":0,"o":""},"=":{"ha":688,"x_min":0,"x_max":0,"o":""},">":{"ha":688,"x_min":0,"x_max":0,"o":""},"?":{"ha":612,"x_min":0,"x_max":543,"o":"m 135 229 l 338 229 l 338 26 l 135 26 l 135 229 m 543 767 l 543 426 l 457 340 l 338 340 l 338 292 l 135 292 l 135 454 l 220 541 l 340 541 l 340 652 l 201 652 l 201 586 l 0 586 l 0 854 l 201 854 l 201 814 l 241 854 l 457 854 l 543 767 z "},"@":{"ha":698,"x_min":3,"x_max":631,"o":"m 291 383 l 343 383 l 343 495 l 291 495 l 291 383 m 469 559 l 469 383 l 503 383 l 503 659 l 129 659 l 129 222 l 631 222 l 631 96 l 66 96 l 3 158 l 3 722 l 66 785 l 568 785 l 631 722 l 631 319 l 568 257 l 462 257 l 444 281 l 420 257 l 228 257 l 165 319 l 165 559 l 228 621 l 407 621 l 469 559 z "},"A":{"ha":985,"x_min":3,"x_max":922,"o":"m 507 520 l 463 662 l 419 520 l 507 520 m 922 237 l 922 0 l 560 0 l 560 237 l 593 237 l 572 309 l 354 309 l 332 237 l 366 237 l 366 0 l 3 0 l 3 237 l 76 237 l 331 969 l 595 969 l 850 237 l 922 237 z "},"B":{"ha":850,"x_min":-2,"x_max":787,"o":"m 296 237 l 552 237 l 552 366 l 296 366 l 296 237 m 296 602 l 552 602 l 552 734 l 296 734 l 296 602 m 649 972 l 787 833 l 787 542 l 730 485 l 787 428 l 787 136 l 649 0 l -2 0 l -2 237 l 60 237 l 60 734 l -2 734 l -2 972 l 649 972 z "},"C":{"ha":799,"x_min":1,"x_max":728,"o":"m 493 971 l 728 971 l 728 612 l 493 612 l 493 734 l 237 734 l 237 237 l 493 237 l 493 357 l 728 357 l 728 136 l 591 0 l 140 0 l 1 136 l 1 833 l 140 971 l 446 971 l 493 926 l 493 971 z "},"D":{"ha":860,"x_min":-1,"x_max":789,"o":"m 553 735 l 297 735 l 297 237 l 553 237 l 553 735 m 789 833 l 789 136 l 650 0 l -1 0 l -1 237 l 61 237 l 61 735 l -1 735 l -1 972 l 650 972 l 789 833 z "},"E":{"ha":842,"x_min":0,"x_max":784,"o":"m 548 612 l 548 735 l 297 735 l 297 604 l 505 604 l 505 368 l 297 368 l 297 236 l 542 236 l 542 357 l 784 357 l 784 0 l 0 0 l 0 236 l 61 236 l 61 735 l 0 735 l 0 972 l 501 972 l 548 927 l 548 972 l 784 972 l 784 612 l 548 612 z "},"F":{"ha":855,"x_min":2,"x_max":786,"o":"m 786 972 l 786 613 l 551 613 l 551 736 l 299 736 l 299 604 l 507 604 l 507 368 l 299 368 l 299 236 l 359 236 l 359 0 l 2 0 l 2 236 l 63 236 l 63 736 l 2 736 l 2 972 l 503 972 l 551 928 l 551 972 l 786 972 z "},"G":{"ha":794,"x_min":-3,"x_max":723,"o":"m 488 654 l 488 734 l 233 734 l 233 237 l 488 237 l 488 357 l 332 357 l 332 592 l 723 592 l 723 136 l 585 0 l 135 0 l -3 136 l -3 832 l 136 970 l 441 970 l 488 925 l 488 970 l 723 970 l 723 654 l 488 654 z "},"H":{"ha":906,"x_min":3,"x_max":840,"o":"m 483 970 l 840 970 l 840 735 l 779 735 l 779 235 l 840 235 l 840 0 l 483 0 l 483 235 l 543 235 l 543 368 l 298 368 l 298 235 l 359 235 l 359 0 l 3 0 l 3 235 l 63 235 l 63 735 l 3 735 l 3 970 l 359 970 l 359 735 l 298 735 l 298 603 l 543 603 l 543 735 l 483 735 l 483 970 z "},"I":{"ha":424,"x_min":3,"x_max":361,"o":"m 3 967 l 361 967 l 361 732 l 299 732 l 299 236 l 361 236 l 361 0 l 3 0 l 3 236 l 64 236 l 64 732 l 3 732 l 3 967 z "},"J":{"ha":842,"x_min":1,"x_max":777,"o":"m 420 970 l 777 970 l 777 735 l 715 735 l 715 137 l 576 0 l 140 0 l 1 137 l 1 368 l 235 368 l 235 237 l 481 237 l 481 735 l 420 735 l 420 970 z "},"K":{"ha":906,"x_min":2,"x_max":842,"o":"m 804 735 l 570 517 l 767 235 l 842 235 l 842 0 l 446 0 l 446 235 l 479 235 l 397 353 l 298 260 l 298 235 l 359 235 l 359 0 l 2 0 l 2 235 l 62 235 l 62 735 l 2 735 l 2 970 l 359 970 l 359 735 l 298 735 l 298 583 l 459 735 l 433 735 l 433 970 l 842 970 l 842 735 l 804 735 z "},"L":{"ha":863,"x_min":3,"x_max":791,"o":"m 555 357 l 791 357 l 791 0 l 3 0 l 3 237 l 64 237 l 64 734 l 3 734 l 3 970 l 361 970 l 361 734 l 300 734 l 300 237 l 555 237 l 555 357 z "},"M":{"ha":1106,"x_min":-1,"x_max":1042,"o":"m 698 970 l 1042 970 l 1042 735 l 980 735 l 980 235 l 1042 235 l 1042 0 l 692 0 l 692 235 l 745 235 l 745 449 l 573 0 l 469 0 l 296 449 l 296 235 l 350 235 l 350 0 l -1 0 l -1 235 l 60 235 l 60 735 l -1 735 l -1 970 l 344 970 l 521 511 l 698 970 z "},"N":{"ha":908,"x_min":2,"x_max":850,"o":"m 492 967 l 850 967 l 850 731 l 788 731 l 788 -1 l 569 -1 l 298 476 l 298 235 l 360 235 l 360 -1 l 2 -1 l 2 235 l 64 235 l 64 731 l 2 731 l 2 967 l 288 967 l 553 501 l 553 731 l 492 731 l 492 967 z "},"O":{"ha":791,"x_min":1,"x_max":724,"o":"m 485 735 l 239 735 l 239 235 l 485 235 l 485 735 m 585 971 l 724 833 l 724 136 l 585 -1 l 140 -1 l 1 136 l 1 833 l 140 971 l 585 971 z "},"P":{"ha":852,"x_min":-1,"x_max":787,"o":"m 300 568 l 547 568 l 547 738 l 300 738 l 300 568 m 647 975 l 787 834 l 787 467 l 647 330 l 300 330 l 300 236 l 361 236 l 361 -1 l -1 -1 l -1 236 l 60 236 l 60 738 l -1 738 l -1 975 l 647 975 z "},"Q":{"ha":781,"x_min":2,"x_max":715,"o":"m 236 237 l 480 237 l 480 734 l 236 734 l 236 237 m 715 139 l 637 62 l 671 2 l 715 2 l 715 -233 l 534 -233 l 401 2 l 141 2 l 2 139 l 2 832 l 141 969 l 576 969 l 715 832 l 715 139 z "},"R":{"ha":921,"x_min":0,"x_max":852,"o":"m 298 541 l 554 541 l 554 734 l 298 734 l 298 541 m 777 237 l 852 237 l 852 -1 l 651 -1 l 430 304 l 298 304 l 298 237 l 359 237 l 359 -1 l 0 -1 l 0 237 l 62 237 l 62 734 l 0 734 l 0 972 l 652 972 l 790 833 l 790 443 l 695 348 l 777 237 z "},"S":{"ha":794,"x_min":-1,"x_max":725,"o":"m 725 656 l 490 656 l 490 733 l 234 733 l 234 601 l 587 601 l 725 463 l 725 135 l 587 -1 l 136 -1 l -1 135 l -1 311 l 234 311 l 234 236 l 490 236 l 490 365 l 136 365 l -1 504 l -1 831 l 136 970 l 442 970 l 490 922 l 490 970 l 725 970 l 725 656 z "},"T":{"ha":906,"x_min":-1,"x_max":842,"o":"m -1 970 l 842 970 l 842 611 l 603 611 l 603 733 l 540 733 l 540 235 l 600 235 l 600 -1 l 240 -1 l 240 235 l 300 235 l 300 733 l 237 733 l 237 611 l -1 611 l -1 970 z "},"U":{"ha":908,"x_min":-3,"x_max":848,"o":"m 488 970 l 848 970 l 848 733 l 785 733 l 785 135 l 648 -1 l 197 -1 l 59 135 l 59 733 l -3 733 l -3 970 l 356 970 l 356 733 l 294 733 l 294 236 l 550 236 l 550 733 l 488 733 l 488 970 z "},"V":{"ha":985,"x_min":-3,"x_max":918,"o":"m 918 970 l 918 733 l 844 733 l 589 -1 l 325 -1 l 70 733 l -3 733 l -3 970 l 359 970 l 359 733 l 327 733 l 457 307 l 587 733 l 555 733 l 555 970 l 918 970 z "},"W":{"ha":1213,"x_min":1,"x_max":1147,"o":"m 1147 967 l 1147 731 l 1089 731 l 936 -1 l 661 -1 l 577 334 l 494 -1 l 218 -1 l 64 731 l 1 731 l 1 967 l 362 967 l 362 731 l 313 731 l 363 471 l 484 967 l 669 967 l 791 470 l 842 731 l 786 731 l 786 967 l 1147 967 z "},"X":{"ha":966,"x_min":-2,"x_max":909,"o":"m 848 733 l 613 488 l 854 235 l 909 235 l 909 -1 l 490 -1 l 490 235 l 536 235 l 453 322 l 370 235 l 416 235 l 416 -1 l -2 -1 l -2 235 l 52 235 l 294 488 l 58 733 l -2 733 l -2 970 l 416 970 l 416 733 l 378 733 l 453 654 l 529 733 l 490 733 l 490 970 l 909 970 l 909 733 l 848 733 z "},"Y":{"ha":941,"x_min":0,"x_max":877,"o":"m 491 970 l 877 970 l 877 734 l 823 734 l 559 319 l 559 236 l 618 236 l 618 -1 l 256 -1 l 256 236 l 317 236 l 317 319 l 60 734 l 0 734 l 0 970 l 386 970 l 386 734 l 337 734 l 439 557 l 543 734 l 491 734 l 491 970 z "},"Z":{"ha":802,"x_min":2,"x_max":732,"o":"m 732 733 l 317 235 l 496 235 l 496 356 l 732 356 l 732 -1 l 2 -1 l 2 230 l 425 734 l 237 733 l 237 611 l 2 611 l 2 970 l 237 970 l 239 922 l 286 970 l 732 970 l 732 733 z "},"[":{"ha":514,"x_min":0,"x_max":0,"o":""},"\\":{"ha":386,"x_min":0,"x_max":0,"o":""},"]":{"ha":514,"x_min":0,"x_max":0,"o":""},"^":{"ha":688,"x_min":0,"x_max":0,"o":""},"_":{"ha":694,"x_min":0,"x_max":0,"o":""},"`":{"ha":694,"x_min":0,"x_max":0,"o":""},"a":{"ha":728,"x_min":3,"x_max":662,"o":"m 364 372 l 332 474 l 301 372 l 364 372 m 662 170 l 662 0 l 403 0 l 403 170 l 426 170 l 410 222 l 255 222 l 239 170 l 262 170 l 262 0 l 3 0 l 3 170 l 56 170 l 238 694 l 427 694 l 610 170 l 662 170 z "},"b":{"ha":629,"x_min":-2,"x_max":563,"o":"m 211 170 l 394 170 l 394 262 l 211 262 l 211 170 m 211 431 l 394 431 l 394 526 l 211 526 l 211 431 m 464 695 l 563 596 l 563 387 l 522 347 l 563 306 l 563 98 l 464 0 l -2 0 l -2 170 l 43 170 l 43 526 l -2 526 l -2 695 l 464 695 z "},"c":{"ha":589,"x_min":1,"x_max":523,"o":"m 354 696 l 523 696 l 523 439 l 354 439 l 354 527 l 170 527 l 170 170 l 354 170 l 354 256 l 523 256 l 523 98 l 424 0 l 100 0 l 1 98 l 1 597 l 101 696 l 320 696 l 354 665 l 354 696 z "},"d":{"ha":632,"x_min":-1,"x_max":564,"o":"m 395 526 l 212 526 l 212 170 l 395 170 l 395 526 m 564 596 l 564 98 l 465 0 l -1 0 l -1 170 l 43 170 l 43 526 l -1 526 l -1 695 l 465 695 l 564 596 z "},"e":{"ha":622,"x_min":0,"x_max":561,"o":"m 392 438 l 392 526 l 212 526 l 212 432 l 361 432 l 361 264 l 212 264 l 212 169 l 388 169 l 388 256 l 561 256 l 561 0 l 0 0 l 0 169 l 43 169 l 43 526 l 0 526 l 0 696 l 358 696 l 392 663 l 392 696 l 561 696 l 561 438 l 392 438 z "},"f":{"ha":627,"x_min":2,"x_max":564,"o":"m 564 696 l 564 439 l 395 439 l 395 527 l 214 527 l 214 433 l 363 433 l 363 264 l 214 264 l 214 169 l 258 169 l 258 0 l 2 0 l 2 169 l 45 169 l 45 527 l 2 527 l 2 696 l 361 696 l 395 665 l 395 696 l 564 696 z "},"g":{"ha":586,"x_min":-3,"x_max":517,"o":"m 349 469 l 349 526 l 165 526 l 165 170 l 349 170 l 349 256 l 237 256 l 237 425 l 517 425 l 517 98 l 418 0 l 96 0 l -3 98 l -3 596 l 96 695 l 315 695 l 349 663 l 349 695 l 517 695 l 517 469 l 349 469 z "},"h":{"ha":665,"x_min":3,"x_max":602,"o":"m 346 694 l 602 694 l 602 526 l 557 526 l 557 168 l 602 168 l 602 0 l 346 0 l 346 168 l 389 168 l 389 263 l 214 263 l 214 168 l 257 168 l 257 0 l 3 0 l 3 168 l 46 168 l 46 526 l 3 526 l 3 694 l 257 694 l 257 526 l 214 526 l 214 431 l 389 431 l 389 526 l 346 526 l 346 694 z "},"i":{"ha":330,"x_min":3,"x_max":261,"o":"m 3 698 l 261 698 l 261 528 l 216 528 l 216 170 l 261 170 l 261 0 l 3 0 l 3 170 l 47 170 l 47 528 l 3 528 l 3 698 z "},"j":{"ha":627,"x_min":1,"x_max":555,"o":"m 300 693 l 555 693 l 555 525 l 511 525 l 511 98 l 412 0 l 100 0 l 1 98 l 1 262 l 168 262 l 168 169 l 343 169 l 343 525 l 300 525 l 300 693 z "},"k":{"ha":670,"x_min":2,"x_max":604,"o":"m 577 527 l 410 370 l 551 169 l 604 169 l 604 0 l 320 0 l 320 169 l 345 169 l 286 253 l 214 186 l 214 169 l 258 169 l 258 0 l 2 0 l 2 169 l 45 169 l 45 527 l 2 527 l 2 695 l 258 695 l 258 527 l 214 527 l 214 418 l 330 527 l 311 527 l 311 695 l 604 695 l 604 527 l 577 527 z "},"l":{"ha":627,"x_min":3,"x_max":566,"o":"m 397 255 l 566 255 l 566 0 l 3 0 l 3 169 l 47 169 l 47 524 l 3 524 l 3 693 l 259 693 l 259 524 l 215 524 l 215 169 l 397 169 l 397 255 z "},"m":{"ha":809,"x_min":-1,"x_max":743,"o":"m 498 692 l 743 692 l 743 524 l 699 524 l 699 168 l 743 168 l 743 0 l 493 0 l 493 168 l 531 168 l 531 320 l 408 0 l 334 0 l 210 320 l 210 168 l 250 168 l 250 0 l -1 0 l -1 168 l 43 168 l 43 524 l -1 524 l -1 692 l 245 692 l 372 364 l 498 692 z "},"n":{"ha":675,"x_min":2,"x_max":614,"o":"m 355 698 l 614 698 l 614 528 l 569 528 l 569 -1 l 411 -1 l 216 343 l 216 170 l 260 170 l 260 -1 l 2 -1 l 2 170 l 46 170 l 46 528 l 2 528 l 2 698 l 209 698 l 400 361 l 400 528 l 355 528 l 355 698 z "},"o":{"ha":593,"x_min":1,"x_max":519,"o":"m 347 526 l 172 526 l 172 168 l 347 168 l 347 526 m 418 695 l 519 597 l 519 98 l 418 -1 l 100 -1 l 1 98 l 1 597 l 100 695 l 418 695 z "},"p":{"ha":627,"x_min":-1,"x_max":562,"o":"m 214 405 l 390 405 l 390 526 l 214 526 l 214 405 m 461 695 l 562 595 l 562 334 l 461 235 l 214 235 l 214 168 l 258 168 l 258 -1 l -1 -1 l -1 168 l 43 168 l 43 526 l -1 526 l -1 695 l 461 695 z "},"q":{"ha":581,"x_min":2,"x_max":513,"o":"m 170 170 l 345 170 l 345 527 l 170 527 l 170 170 m 513 100 l 458 45 l 481 2 l 513 2 l 513 -167 l 383 -167 l 289 2 l 102 2 l 2 100 l 2 597 l 102 695 l 413 695 l 513 597 l 513 100 z "},"r":{"ha":672,"x_min":0,"x_max":609,"o":"m 213 387 l 396 387 l 396 525 l 213 525 l 213 387 m 555 169 l 609 169 l 609 -1 l 466 -1 l 308 218 l 213 218 l 213 169 l 257 169 l 257 -1 l 0 -1 l 0 169 l 44 169 l 44 525 l 0 525 l 0 694 l 466 694 l 565 595 l 565 317 l 497 249 l 555 169 z "},"s":{"ha":583,"x_min":-1,"x_max":517,"o":"m 517 468 l 349 468 l 349 524 l 166 524 l 166 429 l 418 429 l 517 330 l 517 96 l 418 -1 l 97 -1 l -1 96 l -1 222 l 166 222 l 166 168 l 349 168 l 349 260 l 96 260 l -1 360 l -1 594 l 97 692 l 315 692 l 349 659 l 349 692 l 517 692 l 517 468 z "},"t":{"ha":667,"x_min":-1,"x_max":601,"o":"m -1 692 l 601 692 l 601 436 l 430 436 l 430 524 l 385 524 l 385 168 l 429 168 l 429 -1 l 171 -1 l 171 168 l 214 168 l 214 524 l 170 524 l 170 436 l -1 436 l -1 692 z "},"u":{"ha":665,"x_min":-3,"x_max":607,"o":"m 349 695 l 607 695 l 607 526 l 562 526 l 562 97 l 463 -1 l 140 -1 l 41 97 l 41 526 l -3 526 l -3 695 l 254 695 l 254 526 l 210 526 l 210 169 l 394 169 l 394 526 l 349 526 l 349 695 z "},"v":{"ha":721,"x_min":-3,"x_max":657,"o":"m 657 695 l 657 526 l 605 526 l 422 -1 l 232 -1 l 49 526 l -3 526 l -3 695 l 257 695 l 257 526 l 233 526 l 327 220 l 420 526 l 397 526 l 397 695 l 657 695 z "},"w":{"ha":888,"x_min":1,"x_max":825,"o":"m 825 695 l 825 526 l 783 526 l 673 -1 l 475 -1 l 415 240 l 355 -1 l 157 -1 l 47 526 l 1 526 l 1 695 l 260 695 l 260 526 l 225 526 l 262 338 l 348 695 l 481 695 l 568 338 l 605 526 l 565 526 l 565 695 l 825 695 z "},"x":{"ha":698,"x_min":-2,"x_max":650,"o":"m 606 525 l 438 349 l 611 168 l 650 168 l 650 -1 l 351 -1 l 351 168 l 383 168 l 323 231 l 264 168 l 298 168 l 298 -1 l -2 -1 l -2 168 l 36 168 l 210 349 l 41 525 l -2 525 l -2 694 l 298 694 l 298 525 l 270 525 l 323 468 l 378 525 l 351 525 l 351 694 l 650 694 l 650 525 l 606 525 z "},"y":{"ha":695,"x_min":0,"x_max":631,"o":"m 353 698 l 631 698 l 631 528 l 592 528 l 402 230 l 402 170 l 446 170 l 446 -1 l 184 -1 l 184 170 l 228 170 l 228 230 l 43 528 l 0 528 l 0 698 l 277 698 l 277 528 l 243 528 l 315 401 l 391 528 l 353 528 l 353 698 z "},"z":{"ha":593,"x_min":2,"x_max":523,"o":"m 523 524 l 227 168 l 355 168 l 355 254 l 523 254 l 523 -1 l 2 -1 l 2 164 l 304 524 l 170 524 l 170 436 l 2 436 l 2 692 l 170 692 l 171 659 l 205 692 l 523 692 l 523 524 z "},"{":{"ha":688,"x_min":0,"x_max":0,"o":""},"|":{"ha":688,"x_min":0,"x_max":0,"o":""},"}":{"ha":688,"x_min":0,"x_max":0,"o":""},"~":{"ha":688,"x_min":0,"x_max":0,"o":""},"¡":{"ha":456,"x_min":0,"x_max":0,"o":""},"¢":{"ha":772,"x_min":0,"x_max":0,"o":""},"£":{"ha":688,"x_min":0,"x_max":0,"o":""},"¤":{"ha":688,"x_min":0,"x_max":0,"o":""},"¥":{"ha":856,"x_min":0,"x_max":0,"o":""},"¦":{"ha":688,"x_min":0,"x_max":0,"o":""},"§":{"ha":688,"x_min":0,"x_max":0,"o":""},"¨":{"ha":694,"x_min":0,"x_max":0,"o":""},"©":{"ha":1135,"x_min":0,"x_max":0,"o":""},"ª":{"ha":439,"x_min":0,"x_max":0,"o":""},"«":{"ha":640,"x_min":0,"x_max":0,"o":""},"¬":{"ha":688,"x_min":0,"x_max":0,"o":""},"®":{"ha":1135,"x_min":0,"x_max":0,"o":""},"¯":{"ha":454,"x_min":0,"x_max":0,"o":""},"°":{"ha":457,"x_min":0,"x_max":0,"o":""},"±":{"ha":688,"x_min":0,"x_max":0,"o":""},"²":{"ha":688,"x_min":0,"x_max":0,"o":""},"³":{"ha":688,"x_min":0,"x_max":0,"o":""},"´":{"ha":694,"x_min":0,"x_max":0,"o":""},"µ":{"ha":800,"x_min":0,"x_max":0,"o":""},"¶":{"ha":694,"x_min":0,"x_max":0,"o":""},"·":{"ha":345,"x_min":0,"x_max":0,"o":""},"¸":{"ha":694,"x_min":0,"x_max":0,"o":""},"¹":{"ha":688,"x_min":0,"x_max":0,"o":""},"º":{"ha":487,"x_min":0,"x_max":0,"o":""},"»":{"ha":640,"x_min":0,"x_max":0,"o":""},"¼":{"ha":1158,"x_min":0,"x_max":0,"o":""},"½":{"ha":1332,"x_min":0,"x_max":0,"o":""},"¾":{"ha":1158,"x_min":0,"x_max":0,"o":""},"¿":{"ha":507,"x_min":0,"x_max":0,"o":""},"À":{"ha":1044,"x_min":0,"x_max":0,"o":""},"Á":{"ha":1044,"x_min":0,"x_max":0,"o":""},"Â":{"ha":1044,"x_min":0,"x_max":0,"o":""},"Ã":{"ha":1044,"x_min":0,"x_max":0,"o":""},"Ä":{"ha":1044,"x_min":0,"x_max":0,"o":""},"Å":{"ha":1044,"x_min":0,"x_max":0,"o":""},"Æ":{"ha":1436,"x_min":0,"x_max":0,"o":""},"Ç":{"ha":949,"x_min":0,"x_max":0,"o":""},"È":{"ha":781,"x_min":0,"x_max":0,"o":""},"É":{"ha":781,"x_min":0,"x_max":0,"o":""},"Ê":{"ha":781,"x_min":0,"x_max":0,"o":""},"Ë":{"ha":781,"x_min":0,"x_max":0,"o":""},"Ì":{"ha":446,"x_min":0,"x_max":0,"o":""},"Í":{"ha":446,"x_min":0,"x_max":0,"o":""},"Î":{"ha":446,"x_min":0,"x_max":0,"o":""},"Ï":{"ha":446,"x_min":0,"x_max":0,"o":""},"Ð":{"ha":1029,"x_min":0,"x_max":0,"o":""},"Ñ":{"ha":1054,"x_min":0,"x_max":0,"o":""},"Ò":{"ha":1095,"x_min":0,"x_max":0,"o":""},"Ó":{"ha":1095,"x_min":0,"x_max":0,"o":""},"Ô":{"ha":1095,"x_min":0,"x_max":0,"o":""},"Õ":{"ha":1095,"x_min":0,"x_max":0,"o":""},"Ö":{"ha":1095,"x_min":0,"x_max":0,"o":""},"×":{"ha":688,"x_min":0,"x_max":0,"o":""},"Ø":{"ha":1095,"x_min":0,"x_max":0,"o":""},"Ù":{"ha":1018,"x_min":0,"x_max":0,"o":""},"Ú":{"ha":1018,"x_min":0,"x_max":0,"o":""},"Û":{"ha":1018,"x_min":0,"x_max":0,"o":""},"Ü":{"ha":1018,"x_min":0,"x_max":0,"o":""},"Ý":{"ha":836,"x_min":0,"x_max":0,"o":""},"Þ":{"ha":760,"x_min":0,"x_max":0,"o":""},"ß":{"ha":848,"x_min":0,"x_max":0,"o":""},"à":{"ha":625,"x_min":0,"x_max":0,"o":""},"á":{"ha":625,"x_min":0,"x_max":0,"o":""},"â":{"ha":625,"x_min":0,"x_max":0,"o":""},"ã":{"ha":625,"x_min":0,"x_max":0,"o":""},"ä":{"ha":625,"x_min":0,"x_max":0,"o":""},"å":{"ha":625,"x_min":0,"x_max":0,"o":""},"æ":{"ha":986,"x_min":0,"x_max":0,"o":""},"ç":{"ha":614,"x_min":0,"x_max":0,"o":""},"è":{"ha":616,"x_min":0,"x_max":0,"o":""},"é":{"ha":616,"x_min":0,"x_max":0,"o":""},"ê":{"ha":616,"x_min":0,"x_max":0,"o":""},"ë":{"ha":616,"x_min":0,"x_max":0,"o":""},"ì":{"ha":349,"x_min":0,"x_max":0,"o":""},"í":{"ha":349,"x_min":0,"x_max":0,"o":""},"î":{"ha":349,"x_min":0,"x_max":0,"o":""},"ï":{"ha":349,"x_min":0,"x_max":0,"o":""},"ð":{"ha":772,"x_min":0,"x_max":0,"o":""},"ñ":{"ha":751,"x_min":0,"x_max":0,"o":""},"ò":{"ha":685,"x_min":0,"x_max":0,"o":""},"ó":{"ha":685,"x_min":0,"x_max":0,"o":""},"ô":{"ha":685,"x_min":0,"x_max":0,"o":""},"õ":{"ha":685,"x_min":0,"x_max":0,"o":""},"ö":{"ha":685,"x_min":0,"x_max":0,"o":""},"÷":{"ha":688,"x_min":0,"x_max":0,"o":""},"ø":{"ha":685,"x_min":0,"x_max":0,"o":""},"ù":{"ha":718,"x_min":0,"x_max":0,"o":""},"ú":{"ha":718,"x_min":0,"x_max":0,"o":""},"û":{"ha":718,"x_min":0,"x_max":0,"o":""},"ü":{"ha":718,"x_min":0,"x_max":0,"o":""},"ý":{"ha":589,"x_min":0,"x_max":0,"o":""},"þ":{"ha":685,"x_min":0,"x_max":0,"o":""},"ÿ":{"ha":589,"x_min":0,"x_max":0,"o":""},"ı":{"ha":349,"x_min":0,"x_max":0,"o":""},"ˆ":{"ha":694,"x_min":0,"x_max":0,"o":""},"ˇ":{"ha":694,"x_min":0,"x_max":0,"o":""},"ˉ":{"ha":694,"x_min":0,"x_max":0,"o":""},"˘":{"ha":694,"x_min":0,"x_max":0,"o":""},"˙":{"ha":694,"x_min":0,"x_max":0,"o":""},"˚":{"ha":694,"x_min":0,"x_max":0,"o":""},"˛":{"ha":694,"x_min":0,"x_max":0,"o":""},"˜":{"ha":694,"x_min":0,"x_max":0,"o":""},"˝":{"ha":694,"x_min":0,"x_max":0,"o":""},"–":{"ha":751,"x_min":0,"x_max":0,"o":""},"—":{"ha":1389,"x_min":0,"x_max":0,"o":""},"‘":{"ha":378,"x_min":0,"x_max":0,"o":""},"’":{"ha":378,"x_min":0,"x_max":0,"o":""},"‚":{"ha":378,"x_min":0,"x_max":0,"o":""},"“":{"ha":617,"x_min":0,"x_max":0,"o":""},"”":{"ha":617,"x_min":0,"x_max":0,"o":""},"„":{"ha":617,"x_min":0,"x_max":0,"o":""},"†":{"ha":688,"x_min":0,"x_max":0,"o":""},"‡":{"ha":688,"x_min":0,"x_max":0,"o":""},"•":{"ha":694,"x_min":0,"x_max":0,"o":""},"…":{"ha":1389,"x_min":0,"x_max":0,"o":""},"‹":{"ha":428,"x_min":0,"x_max":0,"o":""},"›":{"ha":428,"x_min":0,"x_max":0,"o":""},"⁄":{"ha":232,"x_min":0,"x_max":0,"o":""},"₣":{"ha":688,"x_min":0,"x_max":0,"o":""},"₤":{"ha":688,"x_min":0,"x_max":0,"o":""},"₧":{"ha":1375,"x_min":0,"x_max":0,"o":""},"€":{"ha":688,"x_min":0,"x_max":0,"o":""},"№":{"ha":1540,"x_min":0,"x_max":0,"o":""},"™":{"ha":1015,"x_min":0,"x_max":0,"o":""},"∂":{"ha":688,"x_min":0,"x_max":0,"o":""},"∆":{"ha":733,"x_min":0,"x_max":0,"o":""},"∏":{"ha":1027,"x_min":0,"x_max":0,"o":""},"∑":{"ha":818,"x_min":0,"x_max":0,"o":""},"−":{"ha":688,"x_min":0,"x_max":0,"o":""},"√":{"ha":688,"x_min":0,"x_max":0,"o":""},"∞":{"ha":688,"x_min":0,"x_max":0,"o":""},"∫":{"ha":451,"x_min":0,"x_max":0,"o":""},"≈":{"ha":688,"x_min":0,"x_max":0,"o":""},"≤":{"ha":688,"x_min":0,"x_max":0,"o":""},"≥":{"ha":688,"x_min":0,"x_max":0,"o":""},"":{"ha":728,"x_min":0,"x_max":0,"o":""},"":{"ha":733,"x_min":0,"x_max":0,"o":""}}}
